<svg width="70" height="70" viewBox="0 0 70 70" fill="none" xmlns="http://www.w3.org/2000/svg">
<path d="M60.3738 60.3742C65.69 55.0581 58.6392 39.3881 44.6255 25.3744C30.6118 11.3607 14.9418 4.30986 9.6257 9.626C4.30957 14.9421 11.3604 30.6121 25.3741 44.6258C39.3878 58.6395 55.0577 65.6903 60.3738 60.3742Z" stroke="black" stroke-width="2" stroke-linecap="round" stroke-linejoin="round"/>
<path d="M44.6255 44.6256C58.6392 30.6119 65.69 14.9419 60.3738 9.62579C55.0577 4.30965 39.3878 11.3605 25.3741 25.3742C11.3604 39.3879 4.30957 55.0579 9.6257 60.374C14.9418 65.6901 30.6118 58.6393 44.6255 44.6256Z" stroke="black" stroke-width="2" stroke-linecap="round" stroke-linejoin="round"/>
<path d="M35.0024 38.7024C37.0468 38.7024 38.7041 37.0451 38.7041 35.0007C38.7041 32.9564 37.0468 31.2991 35.0024 31.2991C32.9581 31.2991 31.3008 32.9564 31.3008 35.0007C31.3008 37.0451 32.9581 38.7024 35.0024 38.7024Z" fill="black"/>
</svg>
