<svg width="259" height="36" viewBox="0 0 259 36" fill="none" xmlns="http://www.w3.org/2000/svg">
<g clip-path="url(#clip0_625_33)">
<path d="M15.0074 4.74093H13.9433C13.8458 3.77221 13.6385 3.05731 13.3216 2.59512C13.0046 2.13403 12.6621 1.84918 12.2963 1.74167C11.9305 1.63416 11.5082 1.57985 11.0305 1.57985H9.10419V13.0338C9.10419 13.4871 9.14852 13.8396 9.2383 14.089C9.32808 14.3395 9.53645 14.5334 9.86564 14.672C10.1937 14.8105 10.6759 14.8792 11.3099 14.8792V15.9399H3.69532V14.8792C4.62857 14.8792 5.22931 14.7407 5.49864 14.4636C5.76798 14.1865 5.90209 13.7099 5.90209 13.0338V1.58095H4.28941C3.65431 1.58095 3.12783 1.63305 2.70998 1.73613C2.29212 1.84031 1.92414 2.12406 1.60714 2.58957C1.29015 3.05509 1.10837 3.77221 1.06404 4.74093H0V0.300781H15.0074V4.74204V4.74093Z" fill="white"/>
<path d="M34.037 15.9422H26.5677V14.8814C27.1795 14.8814 27.6428 14.8127 27.9565 14.6742C28.2702 14.5356 28.4719 14.3361 28.5617 14.0746C28.6514 13.813 28.6958 13.4672 28.6958 13.036V8.34093H21.6509V13.036C21.6509 13.6822 21.7817 14.151 22.0433 14.4436C22.3049 14.7362 22.9023 14.8814 23.8356 14.8814V15.9422H16.3097V14.8814C16.9149 14.8814 17.3748 14.8127 17.6929 14.6742C18.0099 14.5356 18.215 14.3383 18.3092 14.0801C18.4023 13.8229 18.4489 13.4749 18.4489 13.036V3.20694C18.4489 2.76913 18.4045 2.42443 18.3147 2.17504C18.225 1.92566 18.0277 1.72726 17.7218 1.58095C17.4159 1.43465 16.9448 1.3615 16.3108 1.3615V0.300781H23.8367V1.3615C22.9112 1.3615 22.3149 1.50337 22.05 1.78822C21.7851 2.07307 21.6521 2.54524 21.6521 3.20694V7.05965H28.6969V3.20694C28.6969 2.76913 28.6559 2.42443 28.5739 2.17504C28.4918 1.92566 28.2979 1.72726 27.992 1.58095C27.686 1.43465 27.2117 1.3615 26.5699 1.3615V0.300781H34.0392V1.3615C33.4041 1.3615 32.9342 1.43465 32.6283 1.58095C32.3224 1.72726 32.1262 1.92566 32.0408 2.17504C31.9555 2.42553 31.9123 2.76913 31.9123 3.20694V13.0349C31.9123 13.4583 31.9511 13.7941 32.0298 14.0446C32.1085 14.2951 32.3046 14.4968 32.6172 14.6498C32.9309 14.8039 33.4053 14.8803 34.0392 14.8803V15.9411L34.037 15.9422Z" fill="white"/>
<path d="M48.9347 10.7971L48.8117 15.9422H35.2828V14.8814C36.2161 14.8814 36.8168 14.7429 37.0862 14.4658C37.3544 14.1887 37.4896 13.7121 37.4896 13.036V3.20694C37.4896 2.76137 37.4464 2.41334 37.361 2.16285C37.2746 1.91347 37.074 1.71728 36.7559 1.5743C36.4389 1.43243 35.9479 1.36039 35.2828 1.36039V0.300781H47.8817L48.0835 4.36076H47.0527C46.821 3.46076 46.5539 2.81679 46.2524 2.42886C45.9498 2.04093 45.6107 1.80263 45.2338 1.71396C44.857 1.62529 44.2917 1.58095 43.5369 1.58095H40.6928V7.1062H42.2379C42.7677 7.1062 43.1634 7.05854 43.425 6.96211C43.6865 6.86568 43.8694 6.68391 43.9736 6.41457C44.0778 6.14524 44.1487 5.72295 44.1864 5.14549H45.2615V10.3482H44.2307C44.2008 9.77184 44.1266 9.34622 44.0069 9.07356C43.8871 8.8009 43.6987 8.61802 43.4416 8.52603C43.1844 8.43403 42.7899 8.38748 42.2601 8.38748H40.6917V12.0673C40.6917 12.6824 40.7061 13.1324 40.736 13.4173C40.766 13.7021 40.8458 13.9382 40.9766 14.1266C41.1073 14.3151 41.3202 14.4514 41.615 14.5356C41.9098 14.6199 42.3299 14.662 42.8752 14.662H44.0955C44.6109 14.662 45.1019 14.5944 45.5686 14.4603C46.0352 14.3262 46.4929 13.9803 46.9407 13.4217C47.3885 12.8642 47.7022 11.9897 47.8817 10.7971H48.9347Z" fill="white"/>
<path d="M69.9163 10.7162L69.8154 15.9422H56.2866V14.8814C57.2199 14.8814 57.8206 14.7429 58.0899 14.4658C58.3582 14.1887 58.4934 13.7121 58.4934 13.036V3.20694C58.4934 2.75361 58.4491 2.40115 58.3593 2.15177C58.2695 1.90238 58.0622 1.70731 57.7375 1.56876C57.4127 1.43021 56.9295 1.3615 56.2877 1.3615V0.300781H63.9255V1.3615C63.2904 1.3615 62.8116 1.42689 62.4869 1.55768C62.1621 1.68847 61.9493 1.87911 61.8484 2.12849C61.7476 2.37898 61.6977 2.7381 61.6977 3.20694V12.2047C61.6977 12.9119 61.731 13.4195 61.7986 13.7276C61.8662 14.0358 62.0491 14.2685 62.3472 14.4259C62.6454 14.5833 63.1353 14.662 63.8147 14.662C64.6737 14.662 65.4252 14.5944 66.0714 14.4603C66.7175 14.3262 67.315 13.9681 67.8636 13.3874C68.4122 12.8066 68.7536 11.9165 68.8888 10.7173H69.9196L69.9163 10.7162Z" fill="white"/>
<path d="M86.2471 15.9417H79.0903V14.881C79.6955 14.881 80.1355 14.8367 80.4115 14.748C80.6875 14.6594 80.826 14.4499 80.826 14.1196C80.826 13.889 80.7817 13.6541 80.6919 13.4158L79.9748 11.5703H75.047L74.6779 12.5856C74.4684 13.1553 74.3642 13.5665 74.3642 13.8203C74.3642 14.2814 74.5382 14.574 74.8851 14.697C75.2321 14.8201 75.6377 14.8821 76.0999 14.8821V15.9429H70.8695V14.8821C71.2874 14.8821 71.642 14.8012 71.9335 14.6394C72.225 14.4776 72.5033 14.1728 72.7682 13.7228C73.0331 13.2728 73.319 12.6366 73.6249 11.8142L78.0041 0H79.0681L83.6934 12.181C84.0292 13.0422 84.2753 13.6252 84.4327 13.9289C84.589 14.2326 84.8062 14.4676 85.0822 14.6328C85.3582 14.7979 85.7461 14.881 86.2471 14.881V15.9417ZM79.5725 10.4398L77.4787 4.98325L75.4848 10.4398H79.5725Z" fill="white"/>
<path d="M102.343 1.3615C101.663 1.3615 101.176 1.44241 100.881 1.60423C100.586 1.76605 100.405 1.99659 100.338 2.29585C100.27 2.59622 100.237 3.05731 100.237 3.68021V9.44819C100.237 10.5089 100.201 11.3069 100.131 11.8423C100.06 12.3765 99.8711 12.9174 99.5652 13.4627C98.9977 14.5168 98.2041 15.2406 97.1856 15.6374C96.167 16.033 95.186 16.2314 94.2461 16.2314C93.5523 16.2314 92.8363 16.1372 92.1014 15.9488C91.3655 15.7604 90.6805 15.4511 90.0465 15.02C89.4114 14.5899 88.9304 14.0247 88.6023 13.3242C88.4227 12.9396 88.2853 12.5528 88.1878 12.1648C88.0902 11.7769 88.0326 11.4111 88.0138 11.0686C87.9949 10.7261 87.986 10.2784 87.986 9.72529L87.9639 3.20805C87.9639 2.53194 87.8353 2.05423 87.5771 1.77714C87.3199 1.50004 86.717 1.3615 85.7682 1.3615V0.300781H93.4282V1.3615C92.7787 1.3615 92.2932 1.42911 91.9718 1.56322C91.6503 1.69733 91.442 1.89019 91.3444 2.13957C91.2469 2.39007 91.1992 2.74475 91.1992 3.20694V9.72418C91.1992 10.3936 91.2314 10.98 91.2945 11.4832C91.3577 11.9864 91.4564 12.4275 91.5916 12.8044C91.8454 13.4273 92.2766 13.9249 92.8851 14.2984C93.4936 14.672 94.163 14.8582 94.8956 14.8582C95.6793 14.8582 96.4097 14.6598 97.0847 14.2641C97.7608 13.8684 98.2285 13.3552 98.4901 12.7245C98.6985 12.2324 98.8348 11.7226 98.8991 11.1961C98.9623 10.6696 98.9944 10.0412 98.9944 9.30965V3.68021C98.9944 3.17258 98.9789 2.79573 98.9501 2.54967C98.9202 2.30361 98.8381 2.08637 98.704 1.89795C98.5699 1.70952 98.3471 1.57319 98.0379 1.48896C97.7275 1.40472 97.3008 1.3615 96.7555 1.3615V0.300781H102.344V1.3615H102.343Z" fill="white"/>
<path d="M119.895 1.3615C119.17 1.3615 118.651 1.43687 118.339 1.5865C118.025 1.73613 117.831 1.9578 117.757 2.2493C117.683 2.54192 117.645 3.01852 117.645 3.68022V16.0807H116.614L106.681 3.92295V12.5395C106.681 13.1934 106.72 13.6678 106.798 13.9637C106.877 14.2597 107.077 14.4869 107.398 14.6443C107.72 14.8016 108.238 14.8803 108.954 14.8803V15.9411H103.31V14.8803C103.982 14.8803 104.47 14.8016 104.772 14.6443C105.075 14.4869 105.261 14.2597 105.332 13.9637C105.403 13.6678 105.438 13.1934 105.438 12.5395V4.55694C105.438 3.91076 105.422 3.4264 105.389 3.10386C105.355 2.78132 105.274 2.49869 105.148 2.25595C105.021 2.01322 104.813 1.81704 104.526 1.66741C104.239 1.51778 103.841 1.41581 103.334 1.3615V0.300781H107.757L116.403 10.8204V3.68022C116.403 3.0961 116.364 2.64832 116.285 2.33687C116.206 2.02541 116.012 1.78489 115.703 1.61642C115.393 1.44795 114.903 1.3626 114.23 1.3626V0.300781H119.897V1.3615H119.895Z" fill="white"/>
<path d="M136.976 8.25957C136.976 9.39011 136.79 10.4109 136.417 11.322C136.043 12.2331 135.562 12.9923 134.972 13.5997C134.383 14.2071 133.752 14.6649 133.079 14.9719C131.661 15.6181 129.925 15.9406 127.872 15.9406H120.94V14.8799C121.582 14.8799 122.068 14.8167 122.396 14.6892C122.724 14.5629 122.939 14.3723 123.04 14.1184C123.14 13.8646 123.19 13.5033 123.19 13.0344V3.16105C123.19 2.48494 123.056 2.00723 122.787 1.73124C122.518 1.45526 121.902 1.3156 120.939 1.3156V0.230505L124.198 0.161786C124.31 0.161786 124.765 0.154027 125.564 0.13851C126.364 0.122993 126.826 0.115234 126.953 0.115234C128.2 0.115234 129.259 0.183954 130.129 0.3225C130.999 0.461047 131.796 0.68383 132.52 0.991958C133.183 1.26905 133.796 1.65477 134.356 2.15132C134.916 2.64787 135.388 3.21203 135.773 3.84713C136.157 4.48112 136.454 5.17164 136.663 5.91757C136.872 6.66351 136.976 7.44381 136.976 8.25957ZM133.347 8.18974C133.347 6.56708 133.047 5.20821 132.446 4.11203C131.846 3.01585 131.03 2.25661 129.999 1.83432C129.551 1.64922 129.075 1.53285 128.571 1.48297C128.067 1.43309 127.346 1.4076 126.405 1.4076V12.4005C126.405 13.0311 126.435 13.49 126.494 13.7793C126.554 14.0675 126.729 14.2869 127.021 14.4365C127.312 14.5862 127.763 14.6615 128.376 14.6615C130.191 14.6615 131.473 14.0076 132.224 12.7008C132.974 11.3941 133.349 9.88999 133.349 8.19085L133.347 8.18974Z" fill="white"/>
<path d="M155.144 15.9422H151.078C150.928 15.7727 150.743 15.5266 150.524 15.2041C150.303 14.8815 150.063 14.5025 149.801 14.068C149.54 13.6335 149.323 13.2744 149.152 12.9895L148.122 11.2361C147.659 10.4513 147.31 9.91489 147.075 9.62672C146.84 9.33854 146.57 9.15344 146.269 9.07253C145.966 8.99162 145.453 8.95172 144.729 8.95172H144.158V13.035C144.158 13.4661 144.203 13.8119 144.293 14.0735C144.382 14.3351 144.593 14.5346 144.925 14.6731C145.258 14.8117 145.741 14.8804 146.375 14.8804V15.9411H138.76V14.8804C139.685 14.8804 140.28 14.7419 140.546 14.4648C140.811 14.1877 140.944 13.7111 140.944 13.035V3.16157C140.944 2.49211 140.816 2.01773 140.557 1.73731C140.3 1.45689 139.701 1.31613 138.76 1.31613V0.231027L142.276 0.115756C142.545 0.100239 142.853 0.0891549 143.201 0.0813962C143.548 0.0736376 143.87 0.0703125 144.169 0.0703125C144.401 0.0703125 144.786 0.0780711 145.323 0.0935884C146.077 0.116864 146.783 0.162308 147.44 0.232135C148.098 0.300854 148.616 0.389524 148.996 0.497037C149.556 0.643342 150.088 0.884968 150.593 1.22413C151.097 1.56218 151.507 2.00886 151.824 2.56194C152.141 3.11613 152.299 3.75787 152.299 4.48829C152.299 5.01145 152.19 5.51908 151.969 6.0112C151.749 6.50332 151.394 6.94223 150.905 7.32573C150.416 7.71034 149.772 8.01403 148.973 8.23681C149.518 8.56711 149.981 8.97721 150.362 9.46489C150.743 9.95369 151.34 10.8515 152.154 12.1582C152.624 12.9042 153.013 13.4672 153.319 13.8485C153.625 14.2287 153.907 14.4869 154.165 14.6211C154.422 14.7552 154.749 14.8427 155.145 14.8804V15.9411L155.144 15.9422ZM148.85 4.46502C148.85 3.2192 148.482 2.39236 147.747 1.98447C147.012 1.57659 146.05 1.37265 144.863 1.37265C144.699 1.37265 144.571 1.37487 144.477 1.37819C144.383 1.38263 144.277 1.38374 144.157 1.38374V7.67044H144.863C145.991 7.67044 146.937 7.48201 147.702 7.10516C148.467 6.72832 148.85 5.84827 148.85 4.46391V4.46502Z" fill="white"/>
<path d="M169.335 1.3615C168.924 1.39253 168.583 1.48896 168.31 1.64967C168.037 1.8115 167.765 2.0764 167.492 2.44549C167.219 2.81457 166.818 3.4142 166.288 4.24549L163.096 9.33292V13.036C163.096 13.4594 163.139 13.7975 163.225 14.0513C163.31 14.3051 163.511 14.5068 163.824 14.6564C164.138 14.8061 164.631 14.8814 165.303 14.8814V15.9422H157.665V14.8814C158.299 14.8814 158.779 14.8183 159.104 14.6908C159.429 14.5644 159.641 14.3738 159.742 14.12C159.843 13.8662 159.893 13.5048 159.893 13.036V9.5413L156.086 3.00078C156.056 2.95423 156.024 2.90324 155.99 2.84561C155.957 2.78797 155.933 2.7514 155.917 2.73588C155.589 2.18169 155.295 1.82036 155.038 1.65189C154.781 1.48231 154.402 1.38699 153.901 1.36371V0.300781H161.012V1.3615C160.654 1.3615 160.371 1.37258 160.161 1.39586C159.952 1.41913 159.782 1.48009 159.651 1.58095C159.521 1.68071 159.455 1.8392 159.455 2.05423C159.455 2.20054 159.5 2.37677 159.589 2.58514C159.679 2.79241 159.884 3.18145 160.206 3.75004L162.569 7.86765L164.82 4.19893C165.305 3.40645 165.548 2.82677 165.548 2.45768C165.548 1.97332 165.395 1.66962 165.089 1.54659C164.783 1.42356 164.358 1.3615 163.812 1.3615V0.300781H169.333V1.3615H169.335Z" fill="white"/>
<path d="M193.879 15.9422H186.41V14.8814C187.022 14.8814 187.485 14.8127 187.799 14.6742C188.112 14.5356 188.314 14.3361 188.404 14.0746C188.493 13.813 188.538 13.4672 188.538 13.036V8.34093H181.494V13.036C181.494 13.6822 181.625 14.151 181.886 14.4436C182.148 14.7362 182.745 14.8814 183.679 14.8814V15.9422H176.153V14.8814C176.758 14.8814 177.218 14.8127 177.536 14.6742C177.853 14.5356 178.058 14.3383 178.152 14.0801C178.245 13.8229 178.292 13.4749 178.292 13.036V3.20694C178.292 2.76913 178.248 2.42443 178.158 2.17504C178.068 1.92566 177.871 1.72726 177.565 1.58095C177.259 1.43465 176.788 1.3615 176.154 1.3615V0.300781H183.68V1.3615C182.754 1.3615 182.158 1.50337 181.893 1.78822C181.628 2.07307 181.495 2.54524 181.495 3.20694V7.05965H188.539V3.20694C188.539 2.76913 188.498 2.42443 188.416 2.17504C188.334 1.92566 188.14 1.72726 187.834 1.58095C187.528 1.43465 187.054 1.3615 186.412 1.3615V0.300781H193.881V1.3615C193.246 1.3615 192.776 1.43465 192.47 1.58095C192.164 1.72726 191.968 1.92566 191.883 2.17504C191.796 2.42553 191.754 2.76913 191.754 3.20694V13.0349C191.754 13.4583 191.793 13.7941 191.872 14.0446C191.95 14.2951 192.147 14.4968 192.459 14.6498C192.773 14.8039 193.247 14.8803 193.881 14.8803V15.9411L193.879 15.9422Z" fill="white"/>
<path d="M212.606 8.12122C212.606 9.54437 212.278 10.8766 211.621 12.118C210.963 13.3605 209.991 14.3558 208.703 15.1051C207.416 15.8543 205.894 16.2301 204.14 16.2301C202.707 16.2301 201.445 15.9918 200.355 15.5152C199.265 15.0386 198.375 14.4002 197.684 13.5999C196.993 12.8008 196.481 11.9241 196.15 10.9697C195.818 10.0165 195.651 9.05891 195.651 8.09795C195.651 6.70583 195.968 5.3913 196.603 4.15324C197.237 2.91519 198.194 1.91765 199.471 1.15952C200.748 0.402502 202.274 0.0234375 204.052 0.0234375C205.672 0.0234375 207.049 0.296098 208.185 0.842526C209.32 1.38895 210.204 2.07726 210.839 2.90743C211.473 3.7376 211.928 4.60878 212.2 5.51987C212.473 6.43095 212.609 7.2977 212.609 8.12122H212.606ZM208.977 8.07467C208.977 7.19795 208.904 6.36777 208.759 5.58304C208.614 4.79831 208.358 4.08896 207.992 3.45496C207.626 2.82097 207.125 2.31666 206.491 1.94425C205.856 1.57184 205.072 1.38452 204.139 1.38452C202.855 1.38452 201.853 1.71371 201.132 2.37097C200.412 3.02824 199.923 3.85176 199.665 4.83932C199.408 5.82799 199.278 6.90644 199.278 8.07467C199.278 8.72085 199.319 9.39363 199.401 10.093C199.483 10.7924 199.681 11.5095 199.995 12.2444C200.309 12.9792 200.809 13.5977 201.496 14.102C202.183 14.6052 203.071 14.8579 204.161 14.8579C205.252 14.8579 206.123 14.5986 206.798 14.0798C207.474 13.5611 207.966 12.926 208.277 12.1768C208.586 11.4264 208.781 10.7104 208.859 10.0254C208.937 9.34154 208.976 8.69093 208.976 8.07578L208.977 8.07467Z" fill="white"/>
<path d="M230.628 1.3615C229.949 1.3615 229.461 1.44241 229.166 1.60423C228.872 1.76605 228.691 1.99659 228.623 2.29585C228.556 2.59622 228.522 3.05731 228.522 3.68021V9.44819C228.522 10.5089 228.487 11.3069 228.416 11.8423C228.345 12.3765 228.157 12.9174 227.851 13.4627C227.283 14.5168 226.49 15.2406 225.471 15.6374C224.451 16.033 223.472 16.2314 222.532 16.2314C221.838 16.2314 221.122 16.1372 220.387 15.9488C219.651 15.7604 218.966 15.4511 218.332 15.02C217.697 14.5899 217.216 14.0247 216.888 13.3242C216.708 12.9396 216.571 12.5528 216.473 12.1648C216.376 11.7769 216.318 11.4111 216.299 11.0686C216.28 10.7261 216.272 10.2784 216.272 9.72529L216.249 3.20805C216.249 2.53194 216.121 2.05423 215.863 1.77714C215.605 1.50004 215.002 1.3615 214.054 1.3615V0.300781H221.714V1.3615C221.064 1.3615 220.579 1.42911 220.257 1.56322C219.936 1.69733 219.727 1.89019 219.63 2.13957C219.532 2.39007 219.485 2.74475 219.485 3.20694V9.72418C219.485 10.3936 219.517 10.98 219.58 11.4832C219.643 11.9864 219.743 12.4275 219.877 12.8044C220.131 13.4273 220.562 13.9249 221.171 14.2984C221.779 14.672 222.449 14.8582 223.181 14.8582C223.965 14.8582 224.695 14.6598 225.37 14.2641C226.046 13.8684 226.514 13.3552 226.776 12.7245C226.985 12.2324 227.121 11.7226 227.185 11.1961C227.248 10.6696 227.28 10.0412 227.28 9.30965V3.68021C227.28 3.17258 227.264 2.79573 227.236 2.54967C227.206 2.30361 227.124 2.08637 226.99 1.89795C226.855 1.70952 226.633 1.57319 226.323 1.48896C226.013 1.40472 225.586 1.3615 225.041 1.3615V0.300781H230.629V1.3615H230.628Z" fill="white"/>
<path d="M243.264 11.454C243.264 11.9383 243.163 12.4515 242.961 12.9935C242.759 13.5355 242.456 14.0542 242.049 14.5508C241.642 15.0473 241.129 15.4508 240.509 15.7622C239.89 16.0737 239.173 16.23 238.359 16.23C237.546 16.23 236.752 16.0493 235.957 15.688C235.163 15.3266 234.489 14.788 233.936 14.0731C233.696 14.6428 233.543 15.1692 233.477 15.6536H232.446V10.3013H233.477C233.663 11.0705 233.921 11.7931 234.249 12.4704C234.577 13.1476 235.043 13.7295 235.644 14.2183C236.244 14.7071 236.982 14.9509 237.856 14.9509C238.617 14.9509 239.228 14.7359 239.687 14.3047C240.146 13.8747 240.375 13.3316 240.375 12.6787C240.375 12.3096 240.304 11.9871 240.163 11.71C240.021 11.4329 239.816 11.1857 239.546 10.9663C239.277 10.7468 238.91 10.513 238.443 10.2625C237.977 10.0131 237.445 9.74929 236.847 9.4722C235.929 9.02663 235.175 8.57663 234.585 8.1222C233.996 7.66887 233.549 7.22774 233.246 6.80102C232.944 6.37429 232.735 5.96863 232.619 5.58402C232.504 5.19942 232.445 4.81148 232.445 4.41912C232.445 3.71973 232.628 3.02922 232.994 2.34868C233.359 1.66813 233.895 1.11062 234.601 0.676138C235.307 0.241655 236.121 0.0244141 237.048 0.0244141C237.757 0.0244141 238.432 0.188454 239.075 0.514316C239.717 0.841286 240.273 1.28907 240.743 1.85767C240.877 1.53513 241.001 1.0807 241.112 0.496582H242.165V4.85693H241.112C240.365 2.48057 239.066 1.29239 237.215 1.29239C236.544 1.29239 236.004 1.47528 235.597 1.83993C235.19 2.2057 234.986 2.67565 234.986 3.25311C234.986 3.70643 235.113 4.10102 235.368 4.43574C235.622 4.77047 235.955 5.05643 236.37 5.29474C236.784 5.53304 237.454 5.87552 238.38 6.32109C239.5 6.86752 240.375 7.33969 241.006 7.73981C241.637 8.13993 242.171 8.64313 242.608 9.25052C243.044 9.85791 243.263 10.5928 243.263 11.454H243.264Z" fill="white"/>
<path d="M258.576 10.7971L258.453 15.9422H244.924V14.8814C245.857 14.8814 246.458 14.7429 246.728 14.4658C246.997 14.1887 247.131 13.7121 247.131 13.036V3.20694C247.131 2.76137 247.088 2.41334 247.002 2.16285C246.916 1.91347 246.715 1.71728 246.397 1.5743C246.08 1.43243 245.589 1.36039 244.924 1.36039V0.300781H257.523L257.725 4.36076H256.694C256.462 3.46076 256.195 2.81679 255.894 2.42886C255.591 2.04093 255.252 1.80263 254.875 1.71396C254.498 1.62529 253.933 1.58095 253.178 1.58095H250.334V7.1062H251.879C252.409 7.1062 252.805 7.05854 253.066 6.96211C253.328 6.86568 253.511 6.68391 253.615 6.41457C253.719 6.14524 253.79 5.72295 253.828 5.14549H254.903V10.3482H253.872C253.842 9.77184 253.768 9.34622 253.648 9.07356C253.529 8.8009 253.34 8.61802 253.083 8.52603C252.826 8.43403 252.431 8.38748 251.901 8.38748H250.333V12.0673C250.333 12.6824 250.347 13.1324 250.377 13.4173C250.407 13.7021 250.487 13.9382 250.618 14.1266C250.749 14.3151 250.961 14.4514 251.256 14.5356C251.551 14.6199 251.971 14.662 252.517 14.662H253.737C254.252 14.662 254.743 14.5944 255.21 14.4603C255.677 14.3262 256.134 13.9803 256.582 13.4217C257.03 12.8642 257.344 11.9897 257.523 10.7971H258.576Z" fill="white"/>
<path d="M23.7181 26.8743C23.6283 26.5939 23.5097 26.3423 23.3601 26.1195C23.2104 25.8967 23.0331 25.7061 22.827 25.5476C22.6208 25.3891 22.3858 25.2683 22.1231 25.1851C21.8605 25.102 21.5712 25.061 21.2575 25.061C20.7255 25.061 20.2455 25.1984 19.8177 25.4722C19.3899 25.746 19.0518 26.1472 18.8047 26.6748C18.5575 27.2024 18.4334 27.8475 18.4334 28.6111C18.4334 29.3748 18.5575 30.0254 18.8069 30.5541C19.0563 31.0828 19.3976 31.4851 19.831 31.7589C20.2644 32.0327 20.7587 32.1701 21.3129 32.1701C21.8272 32.1701 22.275 32.0659 22.6585 31.8564C23.042 31.647 23.3379 31.351 23.5496 30.9675C23.7602 30.584 23.8655 30.1329 23.8655 29.6131L24.2346 29.6818H21.5302V28.5047H25.2454V29.5798C25.2454 30.3734 25.077 31.0617 24.74 31.6447C24.4031 32.2277 23.9387 32.6777 23.3457 32.9947C22.7538 33.3117 22.0755 33.4702 21.3129 33.4702C20.4572 33.4702 19.708 33.2729 19.0629 32.8795C18.4178 32.486 17.9157 31.9263 17.5555 31.2014C17.1953 30.4765 17.0157 29.6164 17.0157 28.6189C17.0157 27.8652 17.1199 27.188 17.3294 26.5883C17.5389 25.9887 17.8337 25.4789 18.2128 25.0588C18.593 24.6387 19.0407 24.3173 19.5561 24.0945C20.0715 23.8717 20.6357 23.7598 21.2475 23.7598C21.7585 23.7598 22.234 23.8351 22.6762 23.9859C23.1173 24.1366 23.5119 24.3505 23.8577 24.6276C24.2036 24.9047 24.4906 25.2328 24.7189 25.613C24.9462 25.9931 25.1002 26.4143 25.18 26.8754H23.717L23.7181 26.8743Z" fill="white"/>
<path d="M29.2667 33.4979C28.8178 33.4979 28.411 33.4136 28.0486 33.2463C27.685 33.0789 27.399 32.8351 27.1873 32.5147C26.9768 32.1944 26.8715 31.802 26.8715 31.3376C26.8715 30.9375 26.9479 30.6083 27.102 30.3501C27.2561 30.0918 27.4633 29.8868 27.7249 29.736C27.9865 29.5853 28.2791 29.4711 28.6016 29.3947C28.9242 29.3182 29.2534 29.2594 29.5892 29.2195C30.0137 29.1708 30.3584 29.1298 30.6233 29.0976C30.8882 29.0655 31.08 29.0123 31.2008 28.938C31.3205 28.8637 31.3803 28.744 31.3803 28.5778V28.5456C31.3803 28.1422 31.2673 27.8307 31.0412 27.6091C30.8151 27.3874 30.4792 27.2766 30.0325 27.2766C29.5859 27.2766 29.2024 27.3785 28.9364 27.5836C28.6704 27.7886 28.4864 28.0147 28.3844 28.2641L27.0876 27.9682C27.2417 27.537 27.4667 27.189 27.7637 26.923C28.0607 26.657 28.4032 26.463 28.7912 26.3411C29.1791 26.2192 29.587 26.1582 30.0148 26.1582C30.2974 26.1582 30.5989 26.1915 30.917 26.258C31.2351 26.3245 31.5344 26.4453 31.8126 26.6204C32.0908 26.7955 32.3191 27.046 32.4976 27.3708C32.676 27.6955 32.7658 28.1167 32.7658 28.6332V33.3405H31.418V32.3718H31.3626C31.2728 32.5502 31.1398 32.7253 30.9614 32.8982C30.7829 33.0711 30.5535 33.2141 30.2742 33.3272C29.9938 33.4413 29.659 33.4979 29.2678 33.4979H29.2667ZM29.567 32.3906C29.9483 32.3906 30.2753 32.3152 30.5479 32.1645C30.8206 32.0137 31.0279 31.8165 31.1708 31.5715C31.3138 31.3266 31.3859 31.065 31.3859 30.7846V29.8702C31.3371 29.9189 31.2418 29.9644 31.1021 30.0065C30.9625 30.0486 30.8029 30.083 30.6244 30.1129C30.446 30.1417 30.272 30.1683 30.1024 30.1916C29.9328 30.2149 29.792 30.2337 29.6779 30.2492C29.4096 30.2836 29.1658 30.3401 28.9463 30.4199C28.7269 30.4997 28.5506 30.615 28.4199 30.7635C28.2891 30.9131 28.2237 31.1104 28.2237 31.3565C28.2237 31.6979 28.35 31.9561 28.6016 32.1301C28.8543 32.3041 29.1758 32.3906 29.5659 32.3906H29.567Z" fill="white"/>
<path d="M34.8628 33.3411V26.2519H36.1962V27.378H36.2704C36.4001 26.9967 36.6284 26.6953 36.9554 26.4758C37.2835 26.2563 37.6548 26.1455 38.0704 26.1455C38.1569 26.1455 38.2589 26.1488 38.3774 26.1544C38.496 26.161 38.5891 26.1677 38.6568 26.1776V27.4977C38.6013 27.4822 38.5027 27.4645 38.3608 27.4445C38.2189 27.4246 38.0782 27.4146 37.9363 27.4146C37.6105 27.4146 37.3201 27.4833 37.0662 27.6196C36.8124 27.7571 36.6118 27.9455 36.4644 28.1871C36.317 28.4288 36.2427 28.7036 36.2427 29.0107V33.34H34.8628V33.3411Z" fill="white"/>
<path d="M40.1165 33.3405V26.2513H41.441V27.4051H41.5285C41.6759 27.015 41.9176 26.7091 42.2534 26.4885C42.5892 26.269 42.9905 26.1582 43.4582 26.1582C43.9259 26.1582 44.3294 26.269 44.6508 26.4907C44.9722 26.7124 45.2105 27.0172 45.3635 27.404H45.4378C45.6073 27.0261 45.8767 26.7235 46.2458 26.4974C46.6149 26.2713 47.0549 26.1582 47.5658 26.1582C48.2087 26.1582 48.7341 26.3599 49.1419 26.7634C49.5498 27.1668 49.7538 27.7742 49.7538 28.5867V33.3405H48.3738V28.7163C48.3738 28.2364 48.2431 27.8884 47.9815 27.6734C47.7199 27.4583 47.4073 27.3497 47.0449 27.3497C46.596 27.3497 46.2469 27.4871 45.9975 27.7631C45.7481 28.0391 45.624 28.3916 45.624 28.8227V33.3416H44.2485V28.6288C44.2485 28.2442 44.1288 27.9349 43.8883 27.7011C43.6477 27.4672 43.3363 27.3508 42.9517 27.3508C42.6901 27.3508 42.4496 27.4195 42.229 27.5559C42.0084 27.6933 41.8322 27.8828 41.6981 28.1256C41.564 28.3683 41.4975 28.6498 41.4975 28.9702V33.3405H40.1176H40.1165Z" fill="white"/>
<path d="M54.9144 33.4833C54.2161 33.4833 53.6154 33.3337 53.1122 33.0333C52.609 32.7329 52.2211 32.3107 51.9495 31.7642C51.6769 31.2178 51.5405 30.5772 51.5405 29.8423C51.5405 29.1075 51.6769 28.4757 51.9495 27.9226C52.2222 27.3684 52.6035 26.9361 53.0945 26.6258C53.5855 26.3155 54.1596 26.1592 54.818 26.1592C55.2181 26.1592 55.606 26.2257 55.9807 26.3576C56.3564 26.4895 56.6934 26.6978 56.9915 26.9805C57.2897 27.2631 57.5257 27.6311 57.6975 28.0811C57.8693 28.5322 57.9558 29.0786 57.9558 29.7215V30.2103H52.3208V29.1762H56.6036C56.6036 28.8126 56.5293 28.4912 56.3819 28.2097C56.2345 27.9281 56.0272 27.7054 55.7612 27.5424C55.4952 27.3795 55.1838 27.2975 54.8269 27.2975C54.4389 27.2975 54.102 27.3917 53.8138 27.5812C53.5256 27.7708 53.3051 28.0168 53.1488 28.3194C52.9936 28.622 52.916 28.9512 52.916 29.3047V30.1128C52.916 30.5871 53.0003 30.9895 53.1676 31.322C53.335 31.6545 53.57 31.9072 53.8714 32.0812C54.1729 32.2552 54.5254 32.3417 54.9288 32.3417C55.1904 32.3417 55.4287 32.304 55.6437 32.2286C55.8588 32.1533 56.045 32.0402 56.2023 31.8895C56.3597 31.7387 56.4794 31.5525 56.5626 31.3309L57.8682 31.5658C57.764 31.9504 57.5767 32.2863 57.3074 32.5744C57.0381 32.8626 56.7011 33.0854 56.2966 33.2439C55.892 33.4024 55.4309 33.4811 54.9144 33.4811V33.4833Z" fill="white"/>
<path d="M61.1335 29.1327V33.3423H59.7535V26.2531H61.078V27.4069H61.1656C61.3285 27.0312 61.5846 26.7297 61.9337 26.5025C62.2829 26.2753 62.724 26.1611 63.256 26.1611C63.7393 26.1611 64.1627 26.262 64.5251 26.4637C64.8886 26.6654 65.1702 26.9647 65.3697 27.3615C65.5692 27.7583 65.67 28.2493 65.67 28.8334V33.3423H64.2901V28.9997C64.2901 28.4854 64.156 28.0831 63.8889 27.7927C63.6207 27.5023 63.2538 27.356 62.7861 27.356C62.4657 27.356 62.182 27.4247 61.9348 27.5632C61.6877 27.7018 61.4915 27.9035 61.3485 28.1706C61.2055 28.4366 61.1335 28.7581 61.1335 29.1327Z" fill="white"/>
<path d="M71.0855 26.2517V27.359H67.2129V26.2517H71.0855ZM68.2514 24.5537H69.6314V31.2594C69.6314 31.5276 69.6713 31.7282 69.7511 31.8612C69.8309 31.9953 69.9351 32.0862 70.0625 32.1339C70.19 32.1815 70.3296 32.2059 70.4804 32.2059C70.5912 32.2059 70.6876 32.1982 70.7708 32.1827C70.8539 32.1671 70.9182 32.1549 70.9647 32.1461L71.2141 33.2866C71.1343 33.3176 71.0202 33.3487 70.8727 33.3808C70.7253 33.4129 70.5402 33.4307 70.3186 33.434C69.955 33.4407 69.617 33.3753 69.3033 33.24C68.9896 33.1048 68.7358 32.8953 68.5418 32.6127C68.3479 32.3301 68.2514 31.9743 68.2514 31.5464V24.5537Z" fill="white"/>
<path d="M84.5335 26.9628H83.0937C83.0383 26.6547 82.9352 26.3843 82.7845 26.1504C82.6337 25.9165 82.4486 25.7181 82.2303 25.5552C82.0119 25.3923 81.7681 25.2692 81.4987 25.1861C81.2294 25.103 80.9446 25.062 80.6431 25.062C80.0989 25.062 79.6112 25.1994 79.1822 25.4732C78.7533 25.7469 78.4141 26.1482 78.167 26.678C77.9198 27.2067 77.7957 27.8529 77.7957 28.6165C77.7957 29.3802 77.9198 30.0353 78.167 30.5639C78.4141 31.0926 78.7533 31.4928 79.1845 31.7643C79.6156 32.0348 80.1 32.17 80.6386 32.17C80.9368 32.17 81.2205 32.129 81.4899 32.0481C81.7592 31.966 82.0031 31.8452 82.2214 31.6856C82.4398 31.526 82.6249 31.3298 82.7778 31.0971C82.9297 30.8643 83.035 30.5983 83.0937 30.2957L84.5335 30.3002C84.457 30.7646 84.3085 31.1913 84.0879 31.5814C83.8684 31.9705 83.5858 32.3063 83.2433 32.5878C82.8997 32.8694 82.5085 33.0866 82.0685 33.2407C81.6284 33.3947 81.1485 33.4712 80.6287 33.4712C79.8107 33.4712 79.0814 33.2761 78.4407 32.8871C77.8012 32.4981 77.2969 31.9405 76.9289 31.2135C76.5609 30.4875 76.377 29.6207 76.377 28.6154C76.377 27.6101 76.5621 26.7389 76.9311 26.0152C77.3002 25.2903 77.8045 24.7339 78.4452 24.3449C79.0847 23.9558 79.8129 23.7607 80.6287 23.7607C81.1297 23.7607 81.5985 23.8328 82.0341 23.9758C82.4697 24.1187 82.8609 24.3282 83.209 24.6031C83.557 24.878 83.8441 25.2138 84.0724 25.6095C84.2996 26.0052 84.4537 26.4563 84.5335 26.9639V26.9628Z" fill="white"/>
<path d="M88.4527 33.4979C88.0038 33.4979 87.597 33.4136 87.2346 33.2463C86.871 33.0789 86.5851 32.8351 86.3734 32.5147C86.1628 32.1944 86.0575 31.802 86.0575 31.3376C86.0575 30.9375 86.134 30.6083 86.288 30.3501C86.4421 30.0918 86.6494 29.8868 86.9109 29.736C87.1725 29.5853 87.4651 29.4711 87.7877 29.3947C88.1102 29.3182 88.4394 29.2594 88.7752 29.2195C89.1997 29.1708 89.5444 29.1298 89.8093 29.0976C90.0742 29.0655 90.266 29.0123 90.3868 28.938C90.5065 28.8637 90.5664 28.744 90.5664 28.5778V28.5456C90.5664 28.1422 90.4533 27.8307 90.2272 27.6091C90.0011 27.3874 89.6653 27.2766 89.2186 27.2766C88.7719 27.2766 88.3884 27.3785 88.1224 27.5836C87.8564 27.7886 87.6724 28.0147 87.5704 28.2641L86.2736 27.9682C86.4277 27.537 86.6527 27.189 86.9497 26.923C87.2468 26.657 87.5893 26.463 87.9772 26.3411C88.3651 26.2192 88.773 26.1582 89.2008 26.1582C89.4835 26.1582 89.785 26.1915 90.1031 26.258C90.4212 26.3245 90.7204 26.4453 90.9986 26.6204C91.2768 26.7955 91.5052 27.046 91.6836 27.3708C91.8621 27.6955 91.9518 28.1167 91.9518 28.6332V33.3405H90.604V32.3718H90.5486C90.4589 32.5502 90.3258 32.7253 90.1474 32.8982C89.969 33.0711 89.7395 33.2141 89.4602 33.3272C89.1798 33.4413 88.8451 33.4979 88.4538 33.4979H88.4527ZM88.7531 32.3906C89.1343 32.3906 89.4613 32.3152 89.734 32.1645C90.0066 32.0137 90.2139 31.8165 90.3569 31.5715C90.4999 31.3266 90.5719 31.065 90.5719 30.7846V29.8702C90.5231 29.9189 90.4278 29.9644 90.2882 30.0065C90.1485 30.0486 89.9889 30.083 89.8104 30.1129C89.632 30.1417 89.458 30.1683 89.2884 30.1916C89.1188 30.2149 88.9781 30.2337 88.8639 30.2492C88.5957 30.2836 88.3518 30.3401 88.1324 30.4199C87.9129 30.4997 87.7367 30.615 87.6059 30.7635C87.4751 30.9131 87.4097 31.1104 87.4097 31.3565C87.4097 31.6979 87.5361 31.9561 87.7877 32.1301C88.0404 32.3041 88.3618 32.3906 88.752 32.3906H88.7531Z" fill="white"/>
<path d="M94.0488 33.3411V26.2519H95.3822V27.378H95.4565C95.5861 26.9967 95.8145 26.6953 96.1414 26.4758C96.4695 26.2563 96.8408 26.1455 97.2565 26.1455C97.3429 26.1455 97.4449 26.1488 97.5635 26.1544C97.6821 26.161 97.7752 26.1677 97.8428 26.1776V27.4977C97.7874 27.4822 97.6887 27.4645 97.5469 27.4445C97.405 27.4246 97.2642 27.4146 97.1223 27.4146C96.7965 27.4146 96.5061 27.4833 96.2523 27.6196C95.9985 27.7571 95.7978 27.9455 95.6504 28.1871C95.503 28.4288 95.4287 28.7036 95.4287 29.0107V33.34H94.0488V33.3411Z" fill="white"/>
<path d="M102.099 33.4833C101.401 33.4833 100.8 33.3337 100.297 33.0333C99.7936 32.7329 99.4056 32.3107 99.1341 31.7642C98.8614 31.2178 98.7251 30.5772 98.7251 29.8423C98.7251 29.1075 98.8614 28.4757 99.1341 27.9226C99.4067 27.3684 99.788 26.9361 100.279 26.6258C100.77 26.3155 101.344 26.1592 102.003 26.1592C102.403 26.1592 102.791 26.2257 103.165 26.3576C103.541 26.4895 103.878 26.6978 104.176 26.9805C104.474 27.2631 104.71 27.6311 104.882 28.0811C105.054 28.5322 105.14 29.0786 105.14 29.7215V30.2103H99.5054V29.1762H103.788C103.788 28.8126 103.714 28.4912 103.566 28.2097C103.419 27.9281 103.212 27.7054 102.946 27.5424C102.68 27.3795 102.368 27.2975 102.011 27.2975C101.623 27.2975 101.287 27.3917 100.998 27.5812C100.71 27.7708 100.49 28.0168 100.333 28.3194C100.178 28.622 100.101 28.9512 100.101 29.3047V30.1128C100.101 30.5871 100.185 30.9895 100.352 31.322C100.52 31.6545 100.755 31.9072 101.056 32.0812C101.357 32.2552 101.71 32.3417 102.113 32.3417C102.375 32.3417 102.613 32.304 102.828 32.2286C103.043 32.1533 103.23 32.0402 103.387 31.8895C103.544 31.7387 103.664 31.5525 103.747 31.3309L105.053 31.5658C104.949 31.9504 104.761 32.2863 104.492 32.5744C104.223 32.8626 103.886 33.0854 103.481 33.2439C103.077 33.4024 102.615 33.4811 102.099 33.4811V33.4833Z" fill="white"/>
<path d="M114.014 26.2516V27.3588H110.008V26.2516H114.014ZM111.107 33.3407V25.4303C111.107 24.9869 111.203 24.6189 111.397 24.3252C111.591 24.0315 111.848 23.8109 112.167 23.6657C112.488 23.5194 112.835 23.4463 113.21 23.4463C113.487 23.4463 113.725 23.4685 113.921 23.5128C114.118 23.5571 114.264 23.5981 114.36 23.6347L114.036 24.752C113.972 24.7331 113.889 24.7109 113.787 24.6855C113.685 24.6589 113.562 24.6467 113.418 24.6467C113.082 24.6467 112.844 24.7298 112.701 24.896C112.558 25.0623 112.486 25.3017 112.486 25.6165V33.343H111.106L111.107 33.3407Z" fill="white"/>
<path d="M118.401 33.4833C117.736 33.4833 117.156 33.3315 116.661 33.0267C116.165 32.7219 115.781 32.2962 115.507 31.7487C115.233 31.2012 115.096 30.5605 115.096 29.829C115.096 29.0975 115.232 28.4502 115.507 27.8993C115.781 27.3485 116.165 26.9206 116.661 26.6158C117.156 26.311 117.736 26.1592 118.401 26.1592C119.066 26.1592 119.646 26.311 120.141 26.6158C120.637 26.9206 121.021 27.3485 121.295 27.8993C121.569 28.4502 121.706 29.093 121.706 29.829C121.706 30.565 121.569 31.2012 121.295 31.7487C121.021 32.2962 120.637 32.723 120.141 33.0267C119.646 33.3315 119.066 33.4833 118.401 33.4833ZM118.405 32.3251C118.837 32.3251 119.193 32.2109 119.476 31.9837C119.759 31.7565 119.969 31.4528 120.106 31.0748C120.242 30.6969 120.311 30.279 120.311 29.8246C120.311 29.3701 120.242 28.9556 120.106 28.5765C119.968 28.1964 119.759 27.8916 119.476 27.6599C119.193 27.4294 118.835 27.3141 118.405 27.3141C117.975 27.3141 117.612 27.4294 117.328 27.6599C117.044 27.8905 116.833 28.1964 116.696 28.5765C116.559 28.9567 116.491 29.3724 116.491 29.8246C116.491 30.2768 116.56 30.6969 116.696 31.0748C116.833 31.4528 117.044 31.7565 117.328 31.9837C117.613 32.2109 117.972 32.3251 118.405 32.3251Z" fill="white"/>
<path d="M123.502 33.3411V26.2519H124.835V27.378H124.909C125.039 26.9967 125.267 26.6953 125.594 26.4758C125.922 26.2563 126.294 26.1455 126.709 26.1455C126.796 26.1455 126.898 26.1488 127.016 26.1544C127.135 26.161 127.228 26.1677 127.296 26.1776V27.4977C127.24 27.4822 127.142 27.4645 127 27.4445C126.858 27.4246 126.717 27.4146 126.575 27.4146C126.249 27.4146 125.959 27.4833 125.705 27.6196C125.451 27.7571 125.251 27.9455 125.103 28.1871C124.956 28.4288 124.882 28.7036 124.882 29.0107V33.34H123.502V33.3411Z" fill="white"/>
<path d="M133.996 23.8887V33.3409H132.569V23.8887H133.996Z" fill="white"/>
<path d="M136.223 33.3405V26.2513H137.547V27.4051H137.635C137.782 27.015 138.024 26.7091 138.359 26.4885C138.695 26.269 139.097 26.1582 139.564 26.1582C140.032 26.1582 140.435 26.269 140.757 26.4907C141.078 26.7124 141.316 27.0172 141.47 27.404H141.544C141.713 27.0261 141.983 26.7235 142.352 26.4974C142.721 26.2713 143.161 26.1582 143.672 26.1582C144.315 26.1582 144.84 26.3599 145.248 26.7634C145.656 27.1668 145.86 27.7742 145.86 28.5867V33.3405H144.48V28.7163C144.48 28.2364 144.349 27.8884 144.088 27.6734C143.826 27.4583 143.513 27.3497 143.151 27.3497C142.702 27.3497 142.353 27.4871 142.104 27.7631C141.854 28.0391 141.73 28.3916 141.73 28.8227V33.3416H140.355V28.6288C140.355 28.2442 140.235 27.9349 139.994 27.7011C139.754 27.4672 139.442 27.3508 139.058 27.3508C138.796 27.3508 138.556 27.4195 138.335 27.5559C138.115 27.6933 137.938 27.8828 137.804 28.1256C137.67 28.3683 137.604 28.6498 137.604 28.9702V33.3405H136.224H136.223Z" fill="white"/>
<path d="M147.965 35.9993V26.2512H149.312V27.4006H149.428C149.507 27.2531 149.623 27.0825 149.773 26.8885C149.924 26.6945 150.134 26.5249 150.401 26.3786C150.669 26.2323 151.023 26.1592 151.463 26.1592C152.035 26.1592 152.546 26.3044 152.996 26.5926C153.444 26.8818 153.798 27.2986 154.055 27.8428C154.312 28.387 154.441 29.0432 154.441 29.8091C154.441 30.5749 154.313 31.2311 154.057 31.7775C153.802 32.324 153.451 32.744 153.005 33.0377C152.559 33.3315 152.05 33.4789 151.478 33.4789C151.047 33.4789 150.696 33.4068 150.424 33.2616C150.151 33.1176 149.939 32.948 149.785 32.754C149.63 32.56 149.512 32.3882 149.429 32.2375H149.346V35.9993H147.966H147.965ZM149.317 29.7958C149.317 30.2945 149.389 30.7312 149.534 31.107C149.678 31.4827 149.888 31.7753 150.161 31.9859C150.435 32.1965 150.771 32.3018 151.168 32.3018C151.565 32.3018 151.925 32.1921 152.202 31.9715C152.479 31.752 152.688 31.4528 152.831 31.0737C152.974 30.6946 153.046 30.269 153.046 29.7958C153.046 29.3225 152.977 28.9079 152.837 28.5355C152.697 28.1631 152.488 27.8694 152.21 27.6544C151.931 27.4394 151.585 27.3318 151.169 27.3318C150.753 27.3318 150.431 27.4349 150.156 27.6411C149.88 27.8472 149.671 28.1354 149.531 28.5045C149.389 28.8736 149.318 29.3047 149.318 29.7969L149.317 29.7958Z" fill="white"/>
<path d="M159.232 33.4833C158.567 33.4833 157.988 33.3315 157.492 33.0267C156.997 32.7219 156.612 32.2962 156.338 31.7487C156.065 31.2012 155.927 30.5605 155.927 29.829C155.927 29.0975 156.063 28.4502 156.338 27.8993C156.612 27.3485 156.997 26.9206 157.492 26.6158C157.988 26.311 158.567 26.1592 159.232 26.1592C159.897 26.1592 160.477 26.311 160.972 26.6158C161.468 26.9206 161.852 27.3485 162.126 27.8993C162.4 28.4502 162.537 29.093 162.537 29.829C162.537 30.565 162.4 31.2012 162.126 31.7487C161.852 32.2962 161.468 32.723 160.972 33.0267C160.477 33.3315 159.897 33.4833 159.232 33.4833ZM159.238 32.3251C159.669 32.3251 160.026 32.2109 160.309 31.9837C160.591 31.7565 160.802 31.4528 160.938 31.0748C161.074 30.6969 161.143 30.279 161.143 29.8246C161.143 29.3701 161.074 28.9556 160.938 28.5765C160.801 28.1964 160.591 27.8916 160.309 27.6599C160.026 27.4294 159.668 27.3141 159.238 27.3141C158.808 27.3141 158.444 27.4294 158.16 27.6599C157.877 27.8905 157.665 28.1964 157.529 28.5765C157.391 28.9567 157.324 29.3724 157.324 29.8246C157.324 30.2768 157.392 30.6969 157.529 31.0748C157.665 31.4528 157.877 31.7565 158.16 31.9837C158.445 32.2109 158.804 32.3251 159.238 32.3251Z" fill="white"/>
<path d="M164.334 33.3411V26.2519H165.668V27.378H165.742C165.872 26.9967 166.1 26.6953 166.427 26.4758C166.755 26.2563 167.126 26.1455 167.542 26.1455C167.628 26.1455 167.73 26.1488 167.849 26.1544C167.967 26.161 168.061 26.1677 168.128 26.1776V27.4977C168.073 27.4822 167.974 27.4645 167.832 27.4445C167.69 27.4246 167.55 27.4146 167.408 27.4146C167.082 27.4146 166.791 27.4833 166.538 27.6196C166.284 27.7571 166.083 27.9455 165.936 28.1871C165.788 28.4288 165.714 28.7036 165.714 29.0107V33.34H164.334V33.3411Z" fill="white"/>
<path d="M173.313 26.2517V27.359H169.44V26.2517H173.313ZM170.479 24.5537H171.859V31.2594C171.859 31.5276 171.899 31.7282 171.979 31.8612C172.058 31.9953 172.163 32.0862 172.29 32.1339C172.418 32.1815 172.557 32.2059 172.708 32.2059C172.819 32.2059 172.915 32.1982 172.998 32.1827C173.081 32.1671 173.146 32.1549 173.192 32.1461L173.442 33.2866C173.362 33.3176 173.248 33.3487 173.1 33.3808C172.953 33.4129 172.768 33.4307 172.546 33.434C172.183 33.4407 171.844 33.3753 171.531 33.24C171.217 33.1048 170.963 32.8953 170.769 32.6127C170.575 32.3301 170.479 31.9743 170.479 31.5464V24.5537Z" fill="white"/>
<path d="M177.159 33.4979C176.71 33.4979 176.304 33.4136 175.941 33.2463C175.578 33.0789 175.291 32.8351 175.08 32.5147C174.869 32.1944 174.764 31.802 174.764 31.3376C174.764 30.9375 174.841 30.6083 174.995 30.3501C175.149 30.0918 175.356 29.8868 175.617 29.736C175.879 29.5853 176.172 29.4711 176.494 29.3947C176.818 29.3182 177.146 29.2594 177.482 29.2195C177.906 29.1708 178.251 29.1298 178.516 29.0976C178.781 29.0655 178.973 29.0123 179.093 28.938C179.213 28.8637 179.273 28.744 179.273 28.5778V28.5456C179.273 28.1422 179.16 27.8307 178.934 27.6091C178.708 27.3874 178.372 27.2766 177.925 27.2766C177.478 27.2766 177.095 27.3785 176.829 27.5836C176.563 27.7886 176.379 28.0147 176.277 28.2641L174.98 27.9682C175.134 27.537 175.359 27.189 175.656 26.923C175.953 26.657 176.296 26.463 176.683 26.3411C177.071 26.2192 177.478 26.1582 177.906 26.1582C178.189 26.1582 178.49 26.1915 178.808 26.258C179.127 26.3245 179.426 26.4453 179.704 26.6204C179.982 26.7955 180.211 27.046 180.389 27.3708C180.567 27.6955 180.657 28.1167 180.657 28.6332V33.3405H179.309V32.3718H179.254C179.164 32.5502 179.031 32.7253 178.853 32.8982C178.674 33.0711 178.445 33.2141 178.166 33.3272C177.885 33.4413 177.55 33.4979 177.159 33.4979ZM177.458 32.3906C177.84 32.3906 178.167 32.3152 178.439 32.1645C178.712 32.0137 178.919 31.8165 179.062 31.5715C179.205 31.3266 179.277 31.065 179.277 30.7846V29.8702C179.229 29.9189 179.133 29.9644 178.994 30.0065C178.854 30.0486 178.694 30.083 178.516 30.1129C178.337 30.1417 178.163 30.1683 177.994 30.1916C177.824 30.2149 177.683 30.2337 177.569 30.2492C177.301 30.2836 177.057 30.3401 176.838 30.4199C176.617 30.4997 176.442 30.615 176.311 30.7635C176.181 30.9131 176.115 31.1104 176.115 31.3565C176.115 31.6979 176.241 31.9561 176.494 32.1301C176.747 32.3041 177.068 32.3906 177.458 32.3906Z" fill="white"/>
<path d="M184.134 29.1327V33.3423H182.754V26.2531H184.079V27.4069H184.166C184.329 27.0312 184.585 26.7297 184.934 26.5025C185.284 26.2753 185.725 26.1611 186.257 26.1611C186.74 26.1611 187.163 26.262 187.526 26.4637C187.889 26.6654 188.171 26.9647 188.37 27.3615C188.57 27.7583 188.671 28.2493 188.671 28.8334V33.3423H187.291V28.9997C187.291 28.4854 187.157 28.0831 186.89 27.7927C186.621 27.5023 186.255 27.356 185.787 27.356C185.466 27.356 185.183 27.4247 184.936 27.5632C184.688 27.7018 184.492 27.9035 184.349 28.1706C184.206 28.4366 184.134 28.7581 184.134 29.1327Z" fill="white"/>
<path d="M194.086 26.2517V27.359H190.214V26.2517H194.086ZM191.252 24.5537H192.632V31.2594C192.632 31.5276 192.672 31.7282 192.752 31.8612C192.832 31.9953 192.936 32.0862 193.063 32.1339C193.191 32.1815 193.33 32.2059 193.481 32.2059C193.592 32.2059 193.688 32.1982 193.772 32.1827C193.855 32.1671 193.919 32.1549 193.966 32.1461L194.215 33.2866C194.135 33.3176 194.021 33.3487 193.874 33.3808C193.726 33.4129 193.541 33.4307 193.319 33.434C192.956 33.4407 192.618 33.3753 192.304 33.24C191.99 33.1048 191.737 32.8953 191.543 32.6127C191.349 32.3301 191.252 31.9743 191.252 31.5464V24.5537Z" fill="white"/>
<path d="M199.684 33.3409V23.8887H203.053C203.788 23.8887 204.398 24.0228 204.881 24.2899C205.364 24.5581 205.725 24.9228 205.966 25.3861C206.206 25.8494 206.326 26.3703 206.326 26.9489C206.326 27.5275 206.205 28.0528 205.964 28.5161C205.722 28.9794 205.358 29.3452 204.874 29.6145C204.39 29.8839 203.781 30.018 203.049 30.018H200.732V28.8087H202.92C203.384 28.8087 203.761 28.7278 204.051 28.566C204.34 28.4042 204.552 28.1836 204.688 27.9032C204.823 27.6228 204.891 27.3047 204.891 26.9478C204.891 26.5909 204.823 26.2739 204.688 25.9968C204.553 25.7197 204.34 25.5025 204.048 25.3462C203.758 25.1888 203.376 25.1112 202.901 25.1112H201.11V33.3409H199.684Z" fill="white"/>
<path d="M211.108 33.4833C210.409 33.4833 209.809 33.3337 209.305 33.0333C208.802 32.7329 208.414 32.3107 208.143 31.7642C207.87 31.2178 207.735 30.5772 207.735 29.8423C207.735 29.1075 207.871 28.4757 208.143 27.9226C208.414 27.3695 208.797 26.9361 209.288 26.6258C209.779 26.3155 210.353 26.1592 211.011 26.1592C211.411 26.1592 211.799 26.2257 212.174 26.3576C212.55 26.4895 212.887 26.6978 213.185 26.9805C213.483 27.2631 213.719 27.6311 213.891 28.0811C214.063 28.5322 214.149 29.0786 214.149 29.7215V30.2103H208.514V29.1762H212.797C212.797 28.8126 212.723 28.4912 212.575 28.2097C212.428 27.9281 212.22 27.7054 211.954 27.5424C211.688 27.3795 211.377 27.2975 211.02 27.2975C210.632 27.2975 210.295 27.3917 210.007 27.5812C209.719 27.7708 209.498 28.0168 209.342 28.3194C209.187 28.622 209.109 28.9512 209.109 29.3047V30.1128C209.109 30.5871 209.193 30.9895 209.361 31.322C209.528 31.6545 209.763 31.9072 210.065 32.0812C210.366 32.2552 210.719 32.3417 211.122 32.3417C211.384 32.3417 211.622 32.304 211.837 32.2286C212.052 32.1533 212.238 32.0402 212.396 31.8895C212.553 31.7387 212.673 31.5525 212.756 31.3309L214.061 31.5658C213.957 31.9504 213.77 32.2863 213.501 32.5744C213.231 32.8626 212.894 33.0854 212.49 33.2439C212.085 33.4024 211.624 33.4811 211.108 33.4811V33.4833Z" fill="white"/>
<path d="M218.933 33.4833C218.268 33.4833 217.688 33.3315 217.193 33.0267C216.697 32.7219 216.313 32.2962 216.039 31.7487C215.765 31.2012 215.628 30.5605 215.628 29.829C215.628 29.0975 215.764 28.4502 216.039 27.8993C216.313 27.3485 216.697 26.9206 217.193 26.6158C217.688 26.311 218.268 26.1592 218.933 26.1592C219.598 26.1592 220.177 26.311 220.673 26.6158C221.168 26.9206 221.553 27.3485 221.827 27.8993C222.1 28.4502 222.238 29.093 222.238 29.829C222.238 30.565 222.1 31.2012 221.827 31.7487C221.553 32.2962 221.168 32.723 220.673 33.0267C220.177 33.3315 219.598 33.4833 218.933 33.4833ZM218.937 32.3251C219.368 32.3251 219.725 32.2109 220.008 31.9837C220.29 31.7565 220.501 31.4528 220.637 31.0748C220.774 30.6969 220.842 30.279 220.842 29.8246C220.842 29.3701 220.774 28.9556 220.637 28.5765C220.5 28.1964 220.29 27.8916 220.008 27.6599C219.725 27.4294 219.367 27.3141 218.937 27.3141C218.507 27.3141 218.144 27.4294 217.86 27.6599C217.576 27.8905 217.364 28.1964 217.228 28.5765C217.091 28.9567 217.023 29.3724 217.023 29.8246C217.023 30.2768 217.092 30.6969 217.228 31.0748C217.364 31.4528 217.576 31.7565 217.86 31.9837C218.145 32.2109 218.504 32.3251 218.937 32.3251Z" fill="white"/>
<path d="M224.035 35.9993V26.2512H225.382V27.4006H225.498C225.577 27.2531 225.693 27.0825 225.843 26.8885C225.994 26.6945 226.204 26.5249 226.471 26.3786C226.739 26.2323 227.093 26.1592 227.533 26.1592C228.105 26.1592 228.615 26.3044 229.065 26.5926C229.514 26.8818 229.868 27.2986 230.125 27.8428C230.382 28.387 230.511 29.0432 230.511 29.8091C230.511 30.5749 230.383 31.2311 230.127 31.7775C229.872 32.324 229.521 32.744 229.075 33.0377C228.629 33.3315 228.12 33.4789 227.548 33.4789C227.117 33.4789 226.766 33.4068 226.494 33.2616C226.221 33.1176 226.009 32.948 225.854 32.754C225.7 32.56 225.582 32.3882 225.499 32.2375H225.416V35.9993H224.036H224.035ZM225.387 29.7958C225.387 30.2945 225.459 30.7312 225.604 31.107C225.748 31.4827 225.958 31.7753 226.231 31.9859C226.505 32.1965 226.841 32.3018 227.238 32.3018C227.635 32.3018 227.995 32.1921 228.272 31.9715C228.549 31.752 228.758 31.4528 228.901 31.0737C229.044 30.6946 229.116 30.269 229.116 29.7958C229.116 29.3225 229.047 28.9079 228.907 28.5355C228.767 28.1631 228.558 27.8694 228.28 27.6544C228.001 27.4394 227.654 27.3318 227.239 27.3318C226.823 27.3318 226.501 27.4349 226.226 27.6411C225.95 27.8472 225.741 28.1354 225.601 28.5045C225.459 28.8736 225.388 29.3047 225.388 29.7969L225.387 29.7958Z" fill="white"/>
<path d="M233.695 23.8887V33.3409H232.315V23.8887H233.695Z" fill="white"/>
<path d="M238.867 33.4833C238.169 33.4833 237.568 33.3337 237.065 33.0333C236.561 32.7329 236.173 32.3107 235.902 31.7642C235.629 31.2178 235.494 30.5772 235.494 29.8423C235.494 29.1075 235.63 28.4757 235.902 27.9226C236.173 27.3695 236.556 26.9361 237.047 26.6258C237.538 26.3155 238.112 26.1592 238.77 26.1592C239.171 26.1592 239.558 26.2257 239.933 26.3576C240.309 26.4895 240.646 26.6978 240.944 26.9805C241.242 27.2631 241.478 27.6311 241.65 28.0811C241.822 28.5322 241.908 29.0786 241.908 29.7215V30.2103H236.273V29.1762H240.556C240.556 28.8126 240.482 28.4912 240.334 28.2097C240.187 27.9281 239.98 27.7054 239.714 27.5424C239.448 27.3795 239.136 27.2975 238.779 27.2975C238.391 27.2975 238.054 27.3917 237.766 27.5812C237.478 27.7708 237.257 28.0168 237.101 28.3194C236.946 28.622 236.868 28.9512 236.868 29.3047V30.1128C236.868 30.5871 236.953 30.9895 237.12 31.322C237.287 31.6545 237.522 31.9072 237.824 32.0812C238.125 32.2552 238.478 32.3417 238.881 32.3417C239.143 32.3417 239.381 32.304 239.596 32.2286C239.811 32.1533 239.997 32.0402 240.155 31.8895C240.312 31.7387 240.432 31.5525 240.515 31.3309L241.821 31.5658C241.716 31.9504 241.529 32.2863 241.26 32.5744C240.99 32.8626 240.654 33.0854 240.249 33.2439C239.844 33.4024 239.383 33.4811 238.867 33.4811V33.4833Z" fill="white"/>
</g>
<defs>
<clipPath id="clip0_625_33">
<rect width="258.576" height="36" fill="white"/>
</clipPath>
</defs>
</svg>
