<svg width="65" height="62" viewBox="0 0 65 62" fill="none" xmlns="http://www.w3.org/2000/svg">
<path d="M12.0268 57.8472C11.8697 58.3293 11.8693 58.8488 12.0257 59.3312C12.1821 59.8135 12.4872 60.234 12.8974 60.5322C13.3075 60.8303 13.8015 60.991 14.3086 60.991C14.8157 60.991 15.3097 60.8305 15.7199 60.5323L62.4104 26.9312C62.8161 26.6322 63.1175 26.2131 63.2716 25.7332C63.4258 25.2533 63.4249 24.7371 63.2693 24.2577C63.1136 23.7783 62.8109 23.3601 62.4042 23.0624C61.9975 22.7647 61.5074 22.6026 61.0033 22.5991H3.40151C2.89463 22.5988 2.40068 22.759 1.99044 23.0567C1.5802 23.3544 1.27474 23.7743 1.11786 24.2563C0.960972 24.7383 0.960708 25.2576 1.11711 25.7397C1.2735 26.2219 1.57853 26.6421 1.98847 26.9402L48.6789 60.5413C49.0891 60.8395 49.5832 61 50.0902 61C50.5973 61 51.0914 60.8393 51.5015 60.5412C51.9116 60.243 52.2168 59.8225 52.3732 59.3402C52.5296 58.8578 52.5292 58.3383 52.3721 57.8562L34.4855 2.70247C34.3391 2.21064 34.0378 1.77923 33.6264 1.47247C33.215 1.16571 32.7156 1 32.2024 1C31.6893 1 31.1898 1.16571 30.7784 1.47247C30.3671 1.77923 30.0658 2.21064 29.9194 2.70247L12.0268 57.8472Z" stroke="black" stroke-width="2" stroke-linecap="round" stroke-linejoin="round"/>
</svg>
