<svg width="82" height="62" viewBox="0 0 82 62" fill="none" xmlns="http://www.w3.org/2000/svg">
<path d="M15.2851 60.9991H3.85703C3.0993 60.9991 2.3726 60.6981 1.8368 60.1623C1.30101 59.6265 1 58.8998 1 58.142V43.8566C1 43.0988 1.30101 42.3721 1.8368 41.8363C2.3726 41.3005 3.0993 40.9995 3.85703 40.9995H15.2851" stroke="black" stroke-width="2" stroke-linecap="round" stroke-linejoin="round"/>
<path d="M38.1422 43.8575H49.5703L73.4979 38.354C74.3776 38.1129 75.3011 38.078 76.1965 38.2518C77.0919 38.4257 77.9352 38.8038 78.6607 39.3566C79.3862 39.9094 79.9745 40.6221 80.3798 41.4392C80.7851 42.2564 80.9965 43.156 80.9976 44.0682C80.9981 45.1695 80.6915 46.2492 80.1124 47.186C79.5333 48.1228 78.7045 48.8797 77.7192 49.3716L63.8555 55.2858L40.9992 60.9999H15.286V41.0004L24.2142 32.072C25.0122 31.2767 25.9592 30.6466 27.0009 30.2176C28.0427 29.7887 29.1588 29.5693 30.2854 29.572H48.1418C50.0361 29.572 51.8529 30.3246 53.1924 31.6641C54.5319 33.0036 55.2844 34.8204 55.2844 36.7148C55.2844 38.6091 54.5319 40.4259 53.1924 41.7654C51.8529 43.1049 50.0361 43.8575 48.1418 43.8575H38.1422Z" stroke="black" stroke-width="2" stroke-linecap="round" stroke-linejoin="round"/>
<path d="M32.69 29.5718C29.2151 25.1862 26.7152 20.4863 26.7152 15.2864C26.7152 7.54011 33.0257 1.00096 40.8075 1.00096C43.5887 0.968329 46.3164 1.76663 48.6412 3.29362C50.966 4.82062 52.7821 7.0068 53.8569 9.57221C54.9318 7.0068 56.7479 4.82062 59.0727 3.29362C61.3975 1.76663 64.1252 0.968329 66.9064 1.00096C74.6882 1.00096 80.9987 7.54011 80.9987 15.2864C80.9987 25.7254 70.9348 34.9538 63.0637 40.7573" stroke="black" stroke-width="2" stroke-linecap="round" stroke-linejoin="round"/>
</svg>
